<svg width="17" height="18" viewBox="0 0 17 18" fill="none" xmlns="http://www.w3.org/2000/svg">
<path d="M16.592 15.7126L16.0626 11.4875C16.0045 11.0175 15.946 10.5474 15.887 10.0774C15.8262 9.5907 15.764 9.10957 15.7032 8.61462L15.4364 6.49795C15.3534 5.83433 15.27 5.17117 15.1862 4.50847C15.1295 4.06467 14.9097 3.87664 14.4619 3.87664H13.8343C13.3242 3.87664 12.7976 3.87664 12.2751 3.87664C12.2751 3.71212 12.2751 3.54898 12.2751 3.41349C12.2653 2.94206 12.1583 2.47772 11.9609 2.04952C11.7635 1.62132 11.4799 1.23847 11.1278 0.924915C10.7641 0.578102 10.3274 0.317223 9.84969 0.161467C9.37197 0.00571008 8.86543 -0.0409631 8.36731 0.0248797C6.99745 0.18249 6.0174 0.924915 5.45066 2.23695C5.24589 2.75935 5.16223 3.32139 5.20599 3.88079C4.63233 3.88079 4.05039 3.88079 3.48641 3.88079H2.95422C2.79297 3.87342 2.63513 3.92875 2.51376 4.03519C2.39239 4.14163 2.31692 4.29092 2.30316 4.45178C2.28796 4.56653 2.27275 4.68128 2.25893 4.79604L1.29547 12.4844L0.941597 15.2964C0.875247 15.8191 0.808897 16.3426 0.742546 16.867C0.73568 16.9412 0.744149 17.0161 0.767428 17.0868C0.887688 17.5016 1.20562 17.5541 1.46687 17.5541H16.0197C16.0653 17.5541 16.1109 17.5541 16.1579 17.5541C16.2428 17.5473 16.3254 17.5233 16.4007 17.4837C16.476 17.444 16.5425 17.3894 16.5961 17.3233C16.6487 17.2601 16.688 17.1871 16.7117 17.1085C16.7355 17.0299 16.7432 16.9473 16.7344 16.8656C16.6887 16.4771 16.639 16.0942 16.592 15.7126ZM5.20599 6.38043V6.46062C5.20665 6.58546 5.24444 6.70729 5.31454 6.81059C5.38465 6.91389 5.4839 6.99399 5.59967 7.04069C5.71543 7.08739 5.84248 7.09858 5.96462 7.07283C6.08676 7.04709 6.19849 6.98557 6.28556 6.89612C6.349 6.82616 6.39742 6.74393 6.42785 6.65453C6.45829 6.56512 6.47008 6.47042 6.4625 6.37628V6.08318C6.4625 5.77488 6.4625 5.45689 6.4625 5.14029C8.01758 5.14029 9.54917 5.14029 11.0172 5.14029C11.0172 5.46242 11.0172 5.7887 11.0172 6.10807V6.3749C11.0094 6.4696 11.0214 6.56489 11.0526 6.65466C11.0838 6.74442 11.1334 6.82666 11.1983 6.89612C11.2858 6.98495 11.3978 7.04573 11.52 7.07074C11.6422 7.09576 11.769 7.08387 11.8845 7.0366C11.9999 6.98933 12.0986 6.90881 12.1682 6.80526C12.2377 6.70172 12.2749 6.57983 12.2751 6.45509V6.28642C12.2751 5.91313 12.2751 5.53017 12.2751 5.14582C12.781 5.14582 13.3187 5.14582 13.9933 5.14582C14.0803 5.87027 14.1716 6.59334 14.2614 7.31779V7.36204C14.3098 7.74776 14.3596 8.13488 14.3997 8.52199C14.4632 9.02523 14.5241 9.52848 14.5877 10.0428C14.6512 10.5571 14.7259 11.117 14.7867 11.6534C14.8475 12.1899 14.9249 12.7014 14.9871 13.1936C13.7306 13.1936 12.4603 13.1936 11.2093 13.1936H2.48286C2.54645 12.6904 2.60957 12.1871 2.67224 11.6839L3.35647 6.24356C3.40209 5.88548 3.44909 5.51634 3.4947 5.14997C4.03656 5.14997 4.60054 5.14997 5.21152 5.14997C5.20322 5.56058 5.20461 5.97673 5.20599 6.38043ZM11.0116 3.76466C11.0116 3.80752 11.0116 3.85314 11.0116 3.8877H8.14061C7.58769 3.8877 7.01956 3.8877 6.46112 3.8877C6.44028 3.52202 6.48427 3.15553 6.59105 2.80517C6.8993 1.98394 7.47019 1.48485 8.29128 1.32309C8.44571 1.29353 8.60265 1.27918 8.75988 1.28023C9.1933 1.28035 9.61738 1.40619 9.98074 1.6425C10.3441 1.87881 10.6311 2.21544 10.8071 2.61162C10.9636 2.97154 11.0336 3.36311 11.0116 3.75498V3.76466ZM2.32943 14.449H8.7972C10.8886 14.449 13.0478 14.449 15.1737 14.449C15.2401 15.0324 15.312 15.62 15.3894 16.1868L15.4032 16.2946H2.09582C2.18014 15.7112 2.25063 15.1305 2.32943 14.449ZM2.25893 14.4407H2.2451V14.2402L2.25893 14.4407Z" fill="#312200"/>
</svg>
