<svg width="21" height="20" viewBox="0 0 21 20" fill="none" xmlns="http://www.w3.org/2000/svg">
<path fill-rule="evenodd" clip-rule="evenodd" d="M10.4991 0.5C8.1635 0.5 6.2435 2.27931 6.02067 4.55635C4.21123 4.84528 2.72661 6.21858 2.33263 8.05712L1.04692 14.0571C0.446641 16.8584 2.58213 19.5 5.44703 19.5H15.5511C18.416 19.5 20.5515 16.8584 19.9512 14.0571L18.6655 8.05712C18.2716 6.21857 16.7869 4.84529 14.9775 4.55636C14.7547 2.27932 12.8347 0.5 10.4991 0.5ZM6.73275 5.5H14.2654C15.9158 5.5 17.3419 6.6529 17.6877 8.26665L18.9734 14.2666C19.4403 16.4454 17.7794 18.5 15.5511 18.5H5.44703C3.21878 18.5 1.55784 16.4454 2.02472 14.2666L3.31044 8.26665C3.65624 6.6529 5.08236 5.5 6.73275 5.5ZM10.4991 1.5C8.73585 1.5 7.27714 2.80385 7.03453 4.5H13.9636C13.721 2.80385 12.2623 1.5 10.4991 1.5ZM10.9991 9H9.99909V11.5H7.49909V12.5H9.99909V15H10.9991V12.5H13.4991V11.5H10.9991V9Z" fill="#312200"/>
</svg>
