<svg width="20" height="20" viewBox="0 0 20 20" fill="none" xmlns="http://www.w3.org/2000/svg">
<g clip-path="url(#clip0_26_7034)">
<path d="M16.2111 18.0926L15.6817 13.8675C15.6236 13.3975 15.5651 12.9274 15.5062 12.4574C15.4453 11.9707 15.3831 11.4896 15.3223 10.9946L15.0555 8.87795C14.9726 8.21433 14.8892 7.55117 14.8053 6.88847C14.7487 6.44467 14.5289 6.25665 14.081 6.25665H13.4534C12.9434 6.25665 12.4167 6.25665 11.8942 6.25665C11.8942 6.09213 11.8942 5.92899 11.8942 5.7935C11.8844 5.32207 11.7775 4.85773 11.5801 4.42953C11.3826 4.00133 11.099 3.61848 10.7469 3.30492C10.3833 2.95811 9.94654 2.69723 9.46883 2.54147C8.99112 2.38571 8.48457 2.33904 7.98645 2.40488C6.61659 2.56249 5.63654 3.30492 5.0698 4.61695C4.86503 5.13935 4.78137 5.70139 4.82513 6.2608C4.25148 6.2608 3.66953 6.2608 3.10555 6.2608H2.57336C2.41211 6.25342 2.25427 6.30875 2.1329 6.41519C2.01153 6.52164 1.93606 6.67093 1.9223 6.83179C1.9071 6.94654 1.89189 7.06129 1.87807 7.17604L0.914606 14.8644L0.560738 17.6765C0.494387 18.1991 0.428037 18.7226 0.361687 19.247C0.35482 19.3212 0.36329 19.3961 0.386568 19.4668C0.506828 19.8816 0.824757 19.9341 1.08601 19.9341H15.6389C15.6845 19.9341 15.7301 19.9341 15.7771 19.9341C15.8619 19.9273 15.9445 19.9033 16.0199 19.8637C16.0952 19.824 16.1617 19.7694 16.2153 19.7033C16.2678 19.6402 16.3071 19.5671 16.3309 19.4885C16.3546 19.4099 16.3623 19.3273 16.3535 19.2456C16.3079 18.8571 16.2581 18.4742 16.2111 18.0926ZM4.82513 8.76043V8.84062C4.82579 8.96547 4.86358 9.0873 4.93368 9.1906C5.00379 9.29389 5.10304 9.37399 5.21881 9.42069C5.33457 9.46739 5.46162 9.47858 5.58376 9.45284C5.7059 9.42709 5.81763 9.36558 5.9047 9.27612C5.96814 9.20616 6.01656 9.12394 6.04699 9.03453C6.07743 8.94512 6.08922 8.85043 6.08164 8.75629V8.46319C6.08164 8.15488 6.08164 7.8369 6.08164 7.52029C7.63672 7.52029 9.16831 7.52029 10.6363 7.52029C10.6363 7.84243 10.6363 8.16871 10.6363 8.48807V8.7549C10.6285 8.84961 10.6406 8.9449 10.6718 9.03466C10.7029 9.12442 10.7526 9.20667 10.8174 9.27612C10.905 9.36495 11.0169 9.42573 11.1391 9.45075C11.2613 9.47576 11.3882 9.46388 11.5036 9.41661C11.619 9.36934 11.7178 9.28881 11.7873 9.18527C11.8569 9.08172 11.8941 8.95983 11.8942 8.83509V8.66642C11.8942 8.29314 11.8942 7.91017 11.8942 7.52582C12.4001 7.52582 12.9378 7.52582 13.6124 7.52582C13.6995 8.25028 13.7907 8.97335 13.8806 9.6978V9.74204C13.9289 10.1278 13.9787 10.5149 14.0188 10.902C14.0824 11.4052 14.1432 11.9085 14.2068 12.4228C14.2704 12.9371 14.345 13.497 14.4058 14.0335C14.4667 14.5699 14.5441 15.0814 14.6063 15.5736C13.3498 15.5736 12.0794 15.5736 10.8285 15.5736H2.102C2.16559 15.0704 2.22871 14.5671 2.29138 14.0639L2.97561 8.62356C3.02123 8.26548 3.06823 7.89635 3.11384 7.52997C3.6557 7.52997 4.21968 7.52997 4.83066 7.52997C4.82237 7.94059 4.82375 8.35673 4.82513 8.76043ZM10.6308 6.14466C10.6308 6.18752 10.6308 6.23315 10.6308 6.26771H7.75975C7.20683 6.26771 6.6387 6.26771 6.08026 6.26771C6.05942 5.90203 6.10341 5.53554 6.21019 5.18518C6.51845 4.36395 7.08933 3.86485 7.91042 3.70309C8.06485 3.67354 8.2218 3.65918 8.37902 3.66023C8.81244 3.66035 9.23652 3.78619 9.59988 4.0225C9.96323 4.25881 10.2503 4.59545 10.4262 4.99162C10.5827 5.35154 10.6528 5.74312 10.6308 6.13499V6.14466ZM1.94857 16.829H8.41634C10.5078 16.829 12.6669 16.829 14.7929 16.829C14.8592 17.4124 14.9311 18 15.0085 18.5668L15.0223 18.6747H1.71496C1.79928 18.0912 1.86977 17.5106 1.94857 16.829ZM1.87807 16.8207H1.86425V16.6202L1.87807 16.8207Z" fill="#312200"/>
</g>
<rect x="9" y="1" width="10" height="10" rx="5" fill="#1D1D1D"/>
<rect x="9" y="1" width="10" height="10" rx="5" stroke="white" stroke-width="2"/>
<defs>
<clipPath id="clip0_26_7034">
<rect width="16" height="17.55" fill="white" transform="translate(0.359375 2.38)"/>
</clipPath>
</defs>
</svg>
