<svg width="22" height="22" viewBox="0 0 22 22" fill="none" xmlns="http://www.w3.org/2000/svg">
<path fill-rule="evenodd" clip-rule="evenodd" d="M10.9998 0.708374C8.49052 0.708374 6.42402 2.60423 6.15457 5.04171H5.52676C2.42312 5.04171 0.109675 7.90342 0.759978 10.9382L2.15283 17.4382C2.63449 19.6859 4.62087 21.2917 6.91962 21.2917H15.08C17.3788 21.2917 19.3652 19.6859 19.8468 17.4382L21.2397 10.9382C21.89 7.90341 19.5765 5.04171 16.4729 5.04171H15.8451C15.5756 2.60423 13.5091 0.708374 10.9998 0.708374ZM6.12482 6.12504H7.20815H14.7915H15.8748H16.4729C18.8868 6.12504 20.6862 8.35081 20.1804 10.7112L18.7875 17.2112C18.4129 18.9594 16.8679 20.2084 15.08 20.2084H6.91962C5.13171 20.2084 3.58674 18.9594 3.21212 17.2112L1.81926 10.7112C1.31347 8.35082 3.11282 6.12504 5.52676 6.12504H6.12482ZM10.9998 1.79171C9.08965 1.79171 7.50938 3.20421 7.24655 5.04171H14.7531C14.4903 3.20421 12.91 1.79171 10.9998 1.79171ZM14.0912 11.7441L14.4742 11.3611L13.7082 10.595L13.3251 10.978L10.0971 14.2061L8.67451 12.7836L8.2915 12.4006L7.52547 13.1666L7.90848 13.5496L9.71404 15.3552L10.0971 15.7382L10.4801 15.3552L14.0912 11.7441Z" fill="#312200"/>
</svg>
