<svg width="17" height="16" viewBox="0 0 17 16" fill="none" xmlns="http://www.w3.org/2000/svg">
<path d="M8.42 15.0115C8.31333 15.0115 8.21333 14.9848 8.12 14.9315L8.1 14.9115C7.31333 14.4581 6.52 13.9315 5.72 13.3315C4.17333 12.1581 2.92 10.9515 1.96 9.71147C0.653333 8.00481 0 6.33147 0 4.69147C0 3.86481 0.2 3.09481 0.6 2.38147C1 1.66814 1.55333 1.09814 2.26 0.671473C2.96667 0.244807 3.73333 0.0214743 4.56 0.00147432C5.38667 -0.0185257 6.16 0.164807 6.88 0.551474C7.49333 0.871474 8.00667 1.31147 8.42 1.87147C8.83333 1.31147 9.35333 0.871474 9.98 0.551474C10.7 0.164807 11.47 -0.0151931 12.29 0.0114736C13.11 0.0381403 13.8733 0.261474 14.58 0.681474C15.2867 1.10147 15.84 1.67147 16.24 2.39147C16.64 3.11147 16.84 3.87814 16.84 4.69147C16.84 6.30481 16.2067 7.95147 14.94 9.63147C14.0067 10.8581 12.78 12.0515 11.26 13.2115C10.46 13.8248 9.64 14.3848 8.8 14.8915L8.72 14.9315C8.62667 14.9848 8.52667 15.0115 8.42 15.0115ZM4.68 1.25147C4.45333 1.25147 4.22667 1.27814 4 1.33147C3.46667 1.43814 2.99333 1.65481 2.58 1.98147C2.16667 2.30814 1.84 2.70814 1.6 3.18147C1.36 3.65481 1.24 4.15814 1.24 4.69147C1.24 5.98481 1.76 7.33147 2.8 8.73147C3.57333 9.79814 4.62 10.8581 5.94 11.9115C6.78 12.5781 7.60667 13.1581 8.42 13.6515C9.26 13.1448 10.0933 12.5648 10.92 11.9115C12.24 10.8581 13.2867 9.79814 14.06 8.73147C15.1 7.33147 15.62 5.98481 15.62 4.69147C15.62 4.09147 15.47 3.52814 15.17 3.00147C14.87 2.47481 14.4633 2.05481 13.95 1.74147C13.4367 1.42814 12.8767 1.26481 12.27 1.25147C11.6633 1.23814 11.0933 1.37147 10.56 1.65147C10.2133 1.83814 9.90667 2.07814 9.64 2.37147C9.37333 2.66481 9.16 2.99814 9 3.37147C8.94667 3.49147 8.87 3.58481 8.77 3.65147C8.67 3.71814 8.55667 3.75148 8.43 3.75148C8.30333 3.75148 8.19 3.71814 8.09 3.65147C7.99 3.58481 7.91333 3.49147 7.86 3.37147C7.59333 2.73147 7.17 2.21814 6.59 1.83147C6.01 1.44481 5.37333 1.25147 4.68 1.25147Z" fill="#E8C886"/>
</svg>
