<svg width="20" height="20" viewBox="0 0 20 20" fill="none" xmlns="http://www.w3.org/2000/svg">
<g clip-path="url(#clip0_26_7025)">
<path d="M8.72849 17.035C8.62716 17.035 8.53216 17.0097 8.44349 16.959L8.42449 16.94C7.67716 16.5093 6.92349 16.009 6.16349 15.439C4.69416 14.3243 3.50349 13.178 2.59149 12C1.35016 10.3787 0.729492 8.789 0.729492 7.231C0.729492 6.44567 0.919492 5.71417 1.29949 5.0365C1.67949 4.35884 2.20516 3.81734 2.87649 3.412C3.54783 3.00667 4.27616 2.7945 5.06149 2.7755C5.84683 2.7565 6.58149 2.93067 7.26549 3.298C7.84816 3.602 8.33583 4.02 8.72849 4.552C9.12116 4.02 9.61516 3.602 10.2105 3.298C10.8945 2.93067 11.626 2.75967 12.405 2.785C13.184 2.81034 13.9092 3.0225 14.5805 3.4215C15.2518 3.8205 15.7775 4.362 16.1575 5.046C16.5375 5.73 16.7275 6.45834 16.7275 7.231C16.7275 8.76367 16.1258 10.328 14.9225 11.924C14.0358 13.0893 12.8705 14.223 11.4265 15.325C10.6665 15.9077 9.88749 16.4397 9.08949 16.921L9.01349 16.959C8.92483 17.0097 8.82983 17.035 8.72849 17.035ZM5.17549 3.963C4.96016 3.963 4.74483 3.98834 4.52949 4.039C4.02283 4.14034 3.57316 4.34617 3.18049 4.6565C2.78783 4.96684 2.47749 5.34684 2.24949 5.7965C2.02149 6.24617 1.90749 6.72434 1.90749 7.231C1.90749 8.45967 2.40149 9.739 3.38949 11.069C4.12416 12.0823 5.11849 13.0893 6.37249 14.09C7.17049 14.7233 7.95583 15.2743 8.72849 15.743C9.52649 15.2617 10.3182 14.7107 11.1035 14.09C12.3575 13.0893 13.3518 12.0823 14.0865 11.069C15.0745 9.739 15.5685 8.45967 15.5685 7.231C15.5685 6.661 15.426 6.12584 15.141 5.6255C14.856 5.12517 14.4697 4.72617 13.982 4.4285C13.4943 4.13084 12.9623 3.97567 12.386 3.963C11.8097 3.95034 11.2682 4.077 10.7615 4.343C10.4322 4.52034 10.1408 4.74834 9.88749 5.027C9.63416 5.30567 9.43149 5.62234 9.27949 5.977C9.22883 6.091 9.15599 6.17967 9.06099 6.243C8.96599 6.30634 8.85833 6.338 8.73799 6.338C8.61766 6.338 8.50999 6.30634 8.41499 6.243C8.31999 6.17967 8.24716 6.091 8.19649 5.977C7.94316 5.369 7.54099 4.88134 6.98999 4.514C6.43899 4.14667 5.83416 3.963 5.17549 3.963Z" fill="#312200"/>
<rect x="9" y="1" width="10" height="10" rx="5" fill="#1D1D1D"/>
<rect x="9" y="1" width="10" height="10" rx="5" stroke="white" stroke-width="2"/>
</g>
<defs>
<clipPath id="clip0_26_7025">
<rect width="19.02" height="19" fill="white" transform="matrix(1 0 0 -1 0.719727 19.41)"/>
</clipPath>
</defs>
</svg>
