<svg width="16" height="17" viewBox="0 0 16 17" fill="none" xmlns="http://www.w3.org/2000/svg">
<path d="M15.7011 14.7814C15.0656 14.146 14.1154 13.1492 13.1862 12.1765C12.2044 11.1526 11.1954 10.0926 10.5268 9.42707C10.4349 9.33673 10.447 9.28854 10.5057 9.21627C10.5928 9.10815 10.6728 8.99448 10.7452 8.87597C11.3018 7.98232 11.6044 6.95386 11.6203 5.90116C11.6362 4.84846 11.3649 3.81132 10.8355 2.90125C10.2475 1.89382 9.37174 1.08516 8.32066 0.579139C7.26958 0.0731146 6.09121 -0.107168 4.93689 0.0614469C3.6187 0.257074 2.41131 0.910003 1.52602 1.90596C0.932428 2.53855 0.492881 3.2996 0.241609 4.12985C-0.00966309 4.9601 -0.0658782 5.83714 0.0773412 6.69267C0.275486 8.10216 1.00425 9.38287 2.11483 10.2733C2.69731 10.7666 3.37344 11.1371 4.10265 11.3628C4.83187 11.5884 5.59915 11.6644 6.35847 11.5863C7.39444 11.5012 8.38574 11.1271 9.21968 10.5067C9.25121 10.4796 9.28994 10.4624 9.33112 10.457C9.37888 10.4654 9.4221 10.4905 9.4531 10.5278C10.0765 11.1541 11.0147 12.1389 11.9318 13.0995C12.9031 14.1174 13.9076 15.1699 14.5656 15.8294C14.6226 15.8876 14.683 15.9424 14.7463 15.9935C14.8812 16.1022 15.049 16.1617 15.2222 16.1622C15.2646 16.1616 15.3068 16.1581 15.3487 16.1516C15.455 16.1346 15.5564 16.0954 15.6465 16.0365C15.7365 15.9776 15.8131 15.9004 15.8713 15.8098C16.0806 15.4771 16.0219 15.1006 15.7011 14.7814ZM5.80279 10.061C4.67411 10.061 3.59166 9.61267 2.79356 8.81466C1.99547 8.01666 1.5471 6.93434 1.5471 5.8058C1.5471 4.67725 1.99547 3.59493 2.79356 2.79693C3.59166 1.99892 4.67411 1.55061 5.80279 1.55061V1.32475L5.82236 1.55061C6.66468 1.55239 7.48754 1.80397 8.18682 2.27351C8.88609 2.74306 9.43033 3.40947 9.75068 4.1884C10.071 4.96734 10.1531 5.82379 9.98645 6.64936C9.81982 7.47494 9.412 8.23254 8.8146 8.82628C8.42177 9.21903 7.9552 9.53028 7.4417 9.74217C6.92819 9.95406 6.37787 10.0624 5.82236 10.061V10.2868L5.80279 10.061Z" fill="#312200"/>
</svg>
