<svg width="40" height="40" viewBox="0 0 40 40" fill="none" xmlns="http://www.w3.org/2000/svg">
<path fill-rule="evenodd" clip-rule="evenodd" d="M19.5833 0C8.76746 0 0 8.76746 0 19.5833C0 23.2846 1.02812 26.7508 2.81608 29.704L1.06925 35.6417C0.968953 35.9826 0.962354 36.3442 1.05015 36.6886C1.13794 37.0329 1.31688 37.3472 1.56815 37.5985C1.81943 37.8498 2.13376 38.0287 2.47811 38.1165C2.82245 38.2043 3.18409 38.1977 3.525 38.0974L9.46267 36.3506C12.5151 38.1975 16.0157 39.1715 19.5833 39.1667C30.3992 39.1667 39.1667 30.3992 39.1667 19.5833C39.1667 8.76746 30.3992 0 19.5833 0ZM15.1536 24.015C19.1153 27.9748 22.8968 28.4977 24.2324 28.5466C26.2632 28.621 28.2411 27.07 29.0107 25.2703C29.1079 25.0464 29.1432 24.8006 29.1129 24.5584C29.0826 24.3162 28.9878 24.0867 28.8384 23.8936C27.7652 22.5228 26.3141 21.5378 24.8963 20.5586C24.6003 20.3539 24.2365 20.2718 23.8812 20.3295C23.526 20.3872 23.2069 20.5802 22.9908 20.868L21.8158 22.6599C21.7541 22.7562 21.6578 22.8253 21.5468 22.853C21.4357 22.8806 21.3183 22.8648 21.2185 22.8087C20.4215 22.3524 19.2602 21.5769 18.426 20.7427C17.5917 19.9084 16.8632 18.8 16.4539 18.0539C16.4032 17.9591 16.3885 17.8491 16.4126 17.7443C16.4367 17.6395 16.498 17.5471 16.5851 17.484L18.3946 16.1406C18.6529 15.916 18.8195 15.6044 18.8628 15.2649C18.9062 14.9255 18.8232 14.582 18.6296 14.2998C17.7523 13.0151 16.73 11.3818 15.2476 10.2989C15.0563 10.1602 14.8321 10.0738 14.5973 10.048C14.3624 10.0223 14.1249 10.0581 13.9081 10.152C12.1064 10.9236 10.5476 12.9015 10.622 14.9362C10.671 16.2718 11.1938 20.0533 15.1536 24.015Z" fill="#E8C886"/>
</svg>
