<svg width="40" height="54" viewBox="0 0 40 54" fill="none" xmlns="http://www.w3.org/2000/svg">
<path d="M29.3396 16.1628L32.6778 7.79453C32.7899 7.51434 32.7618 7.2028 32.6177 6.94196L32.6237 6.93863L28.7752 0H23.4016C23.3996 0 23.3983 0 23.3963 0H10.994L6.96264 6.92061L6.96598 6.92262C6.80187 7.20414 6.78119 7.5477 6.91928 7.84523L10.7545 16.1147C4.36891 19.459 0 26.1474 0 33.8412C0 44.8692 8.97198 53.8412 20 53.8412C31.028 53.8412 40 44.8692 40 33.8412C40.0007 26.1848 35.6738 19.523 29.3396 16.1628ZM27.523 15.3142C26.2789 14.8072 24.9726 14.4229 23.6191 14.1748L25.6578 8.42428H30.2715L27.523 15.3142ZM18.2642 13.9206L16.3129 8.42428H23.535L21.5904 13.9099C21.0654 13.8686 20.5364 13.8412 20.0007 13.8412C19.4149 13.8406 18.8366 13.8712 18.2642 13.9206ZM22.6371 2.00067L23.6858 6.42295H16.1621L17.2128 2.00067H22.6371ZM30.0494 6.42295H25.7425L24.6938 2.00067H27.5971L30.0494 6.42295ZM12.1448 2.00067H15.1548L14.1047 6.42295H9.56838L12.1448 2.00067ZM9.39426 8.42428H14.1888L16.2388 14.2001C14.97 14.443 13.7445 14.8059 12.5724 15.2762L9.39426 8.42428ZM20 51.8399C10.0754 51.8399 2.00133 43.7652 2.00133 33.8412C2.00133 23.9173 10.0754 15.8426 20 15.8426C29.9246 15.8426 37.9987 23.9173 37.9987 33.8412C37.9987 43.7652 29.9246 51.8399 20 51.8399Z" fill="#E8C886"/>
<path d="M20.0027 19.1954C11.9239 19.1954 5.35156 25.7658 5.35156 33.8412C5.35156 41.9199 11.9239 48.4923 20.0027 48.4923C28.08 48.4923 34.6511 41.9199 34.6511 33.8412C34.6511 25.7651 28.08 19.1954 20.0027 19.1954ZM20.0027 46.491C13.0273 46.491 7.3529 40.8165 7.3529 33.8412C7.3529 26.8692 13.0273 21.1968 20.0027 21.1968C26.9766 21.1968 32.6498 26.8692 32.6498 33.8412C32.6498 40.8165 26.9766 46.491 20.0027 46.491Z" fill="#E8C886"/>
</svg>
