<svg width="32" height="50" viewBox="0 0 32 50" fill="none" xmlns="http://www.w3.org/2000/svg">
<path d="M31.2 13.3195L25.2455 13.2532V9.3512C25.2455 4.19468 21.0498 0 15.8932 0C10.7372 0 6.54256 4.19521 6.54256 9.3512V13.0443L0.803835 12.9801C0.586439 12.9849 0.386541 13.0607 0.235955 13.2102C0.0848383 13.3598 0 13.5634 0 13.7755V49.2047C0 49.6442 0.355787 50 0.795351 50H31.1921C31.6316 50 31.9874 49.6442 31.9874 49.2047V14.1154C31.9869 13.6795 31.6359 13.3248 31.2 13.3195ZM8.13326 9.3512C8.13326 5.07222 11.6142 1.5907 15.8932 1.5907C20.1728 1.5907 23.6548 5.07222 23.6548 9.3512V13.2352L8.13326 13.0618V9.3512ZM30.3962 48.4093H1.59017V14.5798L6.54256 14.635V17.0173C5.4455 17.3763 4.64485 18.3975 4.64485 19.6134C4.64485 21.1261 5.87552 22.3563 7.38775 22.3563C8.89998 22.3563 10.1306 21.1256 10.1306 19.6134C10.1306 18.3609 9.28174 17.3132 8.13273 16.986V14.653L23.6543 14.8264V17.0019C22.5312 17.3455 21.7067 18.3795 21.7067 19.6134C21.7067 21.1261 22.9374 22.3563 24.4496 22.3563C25.9618 22.3563 27.1925 21.1256 27.1925 19.6134C27.1925 18.3795 26.368 17.345 25.245 17.0019V14.8444L30.3957 14.9022L30.3962 48.4093ZM7.38775 18.4612C8.02297 18.4612 8.53995 18.9781 8.53995 19.6134C8.53995 20.2486 8.02297 20.7656 7.38775 20.7656C6.75253 20.7656 6.23555 20.2486 6.23555 19.6134C6.23555 18.9781 6.75253 18.4612 7.38775 18.4612ZM24.4501 18.4612C25.0854 18.4612 25.6023 18.9781 25.6023 19.6134C25.6023 20.2486 25.0854 20.7656 24.4501 20.7656C23.8149 20.7656 23.2979 20.2486 23.2979 19.6134C23.2979 18.9781 23.8149 18.4612 24.4501 18.4612Z" fill="#E8C886"/>
</svg>
