<svg width="70" height="45" viewBox="0 0 70 45" fill="none" xmlns="http://www.w3.org/2000/svg">
<path d="M68.7933 22.2241H62.88V12.2449C62.88 11.6131 62.3679 11.1018 61.7369 11.1018H43.2166V1.14318C43.2166 0.511381 42.7045 0 42.0735 0H1.14318C0.511381 0 0 0.511381 0 1.14318V38.6279C0 39.259 0.511381 39.7711 1.14318 39.7711H10.6986C11.0949 42.7182 13.619 45 16.6721 45C19.7251 45 22.2493 42.7182 22.6456 39.7711H42.0735H49.4553C49.8516 42.7182 52.3773 45 55.4334 45C58.4895 45 61.0151 42.7182 61.4122 39.7711H68.7941C69.4251 39.7711 69.9372 39.259 69.9372 38.6279V23.3673C69.9365 22.7355 69.4243 22.2241 68.7933 22.2241ZM16.6721 42.7136C14.606 42.7136 12.9248 41.0317 12.9248 38.964C12.9248 36.8964 14.606 35.2144 16.6721 35.2144C18.7382 35.2144 20.4194 36.8964 20.4194 38.964C20.4194 41.0317 18.7389 42.7136 16.6721 42.7136ZM16.6721 32.9281C13.8561 32.9281 11.492 34.8707 10.8297 37.4848H2.28635V2.28635H40.9303V12.2449V23.3673V37.484H22.5152C21.853 34.8707 19.4881 32.9281 16.6721 32.9281ZM55.4334 42.7136C53.3642 42.7136 51.6815 41.0317 51.6815 38.964C51.6815 36.8964 53.3642 35.2144 55.4334 35.2144C57.5025 35.2144 59.1861 36.8964 59.1861 38.964C59.1861 41.0317 57.5018 42.7136 55.4334 42.7136ZM67.6501 37.484H61.2811C60.6181 34.8699 58.2517 32.9273 55.4334 32.9273C52.6151 32.9273 50.2487 34.8699 49.5864 37.484H43.2174V23.3673V13.3881H60.5944V23.3673C60.5944 23.9983 61.1066 24.5105 61.7376 24.5105H67.6509L67.6501 37.484Z" fill="#E8C886"/>
</svg>
